<?xml version="1.0" encoding="iso-8859-1"?>
<!-- Generator: Adobe Illustrator 19.0.0, SVG Export Plug-In . SVG Version: 6.00 Build 0)  -->
<svg version="1.1" id="Capa_1" xmlns="http://www.w3.org/2000/svg" xmlns:xlink="http://www.w3.org/1999/xlink" x="0px" y="0px"
	 viewBox="0 0 512 512" style="enable-background:new 0 0 512 512;" xml:space="preserve">
<g>
	<g>
		<path d="M298.42,211c-4.527-12.764-14.656-22.893-27.42-27.42V31h-30v152.58c-10.794,3.828-19.7,11.664-24.932,21.711
			L26.005,122.255l-12.011,27.491L154.2,211H0v26.924l48.785,187.008C57.396,457.944,87.239,481,121.356,481h269.288
			c34.117,0,63.959-23.056,72.571-56.068L512,237.924V211H298.42z M256,211c8.271,0,15,6.729,15,15s-6.729,15-15,15s-15-6.729-15-15
			S247.729,211,256,211z M434.187,417.359C429.02,437.167,411.114,451,390.644,451H121.356c-20.47,0-38.376-13.833-43.543-33.641
			L31.806,241H213.58c6.192,17.459,22.865,30,42.42,30s36.228-12.541,42.42-30h181.774L434.187,417.359z"/>
	</g>
</g>
<g>
</g>
<g>
</g>
<g>
</g>
<g>
</g>
<g>
</g>
<g>
</g>
<g>
</g>
<g>
</g>
<g>
</g>
<g>
</g>
<g>
</g>
<g>
</g>
<g>
</g>
<g>
</g>
<g>
</g>
</svg>
